<svg xmlns="http://www.w3.org/2000/svg" width="27" height="27" viewBox="0 0 27 27" fill="none">
  <path d="M21.6347 26.9998C20.458 26.9998 18.8051 26.5743 16.33 25.1917C13.3202 23.5042 10.9922 21.9462 7.99869 18.9611C5.11247 16.0773 3.70794 14.2102 1.74221 10.6338C-0.478516 6.59584 -0.0999567 4.4792 0.32321 3.57457C0.827152 2.49335 1.57101 1.84667 2.53248 1.20481C3.07859 0.84708 3.65651 0.540422 4.2589 0.28873C4.31918 0.262814 4.37524 0.238104 4.42528 0.215805C4.72366 0.0814061 5.17576 -0.121699 5.74843 0.0952679C6.1306 0.238707 6.47179 0.532215 7.00587 1.05957C8.10116 2.13958 9.59792 4.5449 10.1501 5.72616C10.5208 6.52231 10.7661 7.04785 10.7668 7.63728C10.7668 8.32735 10.4195 8.85953 9.99818 9.43388C9.91921 9.54177 9.84085 9.64482 9.76489 9.74487C9.30616 10.3476 9.20549 10.5217 9.2718 10.8327C9.40623 11.4577 10.4087 13.3182 12.0561 14.9617C13.7036 16.6052 15.5108 17.5442 16.1383 17.678C16.4626 17.7473 16.6405 17.6425 17.2625 17.1675C17.3518 17.0994 17.4434 17.0289 17.5392 16.9584C18.1818 16.4805 18.6894 16.1424 19.3633 16.1424H19.3669C19.9535 16.1424 20.4556 16.3967 21.2875 16.8162C22.3725 17.3634 24.8506 18.8406 25.9375 19.9369C26.4661 20.4697 26.7609 20.8096 26.905 21.1911C27.122 21.7654 26.9176 22.2156 26.7844 22.517C26.7621 22.567 26.7374 22.6219 26.7115 22.6827C26.4577 23.2839 26.1492 23.8605 25.7898 24.4052C25.149 25.3635 24.4998 26.1054 23.4159 26.6098C22.8594 26.873 22.2503 27.0064 21.6347 26.9998Z" fill="black"/>
</svg>