<svg xmlns="http://www.w3.org/2000/svg" width="27" height="27" viewBox="0 0 27 27" fill="none">
  <path d="M13.5 0C6.057 0 0 6.057 0 13.5C0 20.943 6.057 27 13.5 27C20.943 27 27 20.943 27 13.5C27 6.057 20.943 0 13.5 0ZM13.5 2.25C19.7269 2.25 24.75 7.27313 24.75 13.5C24.7527 16.1932 23.787 18.7976 22.029 20.8379C20.271 22.8782 17.838 24.2184 15.174 24.6139V16.7805H18.378L18.8809 13.5259H15.174V11.7484C15.174 10.3984 15.6184 9.198 16.8818 9.198H18.9124V6.3585C18.5558 6.31013 17.8009 6.2055 16.3744 6.2055C13.3954 6.2055 11.6494 7.77825 11.6494 11.3625V13.5259H8.58713V16.7805H11.6494V24.5858C9.02222 24.1533 6.63439 22.8009 4.91253 20.7701C3.19066 18.7394 2.24695 16.1625 2.25 13.5C2.25 7.27313 7.27313 2.25 13.5 2.25Z" fill="black"/>
</svg>